#!OML:ASF \\sashay\E\basketball\basketball\Project 1\Capture day 1\Session 1\Subject.ASF
:FULLY-SPECIFIED
:DEGREES
341
root -34.7541 14.6399 0.00886447 -179.515 45.6535 -189.679
lowerback 22.1719 7.20135 -9.86694
upperback 10.0568 8.77847 1.37879
thorax -2.69357 4.61671 4.8093
lowerneck 15.6915 -19.2197 -23.9983
upperneck -26.2654 -25.2764 41.7467
head -0.151314 -14.969 17.5635
rclavicle -1.27222e-014 6.36111e-014
rhumerus 36.4047 42.3514 -68.2415
rradius 99.0634
rwrist 5.96506
rhand -44.4009 85.0954
rfingers 7.12502
rthumb -17.2071 55.8372
lclavicle -1.27222e-014 6.36111e-014
lhumerus 28.0706 -8.33499 73.8872
lradius 115.367
lwrist 20.2979
lhand -27.9606 32.7349
lfingers 7.12502
lthumb -1.34787 62.7104
rfemur -29.5756 -17.8918 17.6123
rtibia 82.1669
rfoot -5.63472 -20.5296
rtoes -18.9395
lfemur -34.8337 -8.95476 -19.7385
ltibia 56.6074
lfoot -24.2541 -10.0806
ltoes -24.8588
342
root -34.7425 14.6159 0.0445076 -179.472 46.081 -189.462
lowerback 22.7854 7.30877 -10.057
upperback 10.2848 8.8791 1.62086
thorax -2.80983 4.67261 5.09532
lowerneck 15.084 -19.3034 -24.0478
upperneck -26.1764 -25.3528 41.5559
head -0.0372587 -14.9277 17.3516
rclavicle -6.52014e-014 -1.74931e-014
rhumerus 34.7631 43.607 -68.6304
rradius 98.9289
rwrist 6.12763
rhand -44.8974 85.433
rfingers 7.12502
rthumb -17.6849 56.2172
lclavicle -6.52014e-014 -1.74931e-014
lhumerus 25.9901 -8.7827 74.6008
lradius 115.671
lwrist 19.9876
lhand -28.4574 33.0929
lfingers 7.12502
lthumb -1.82766 63.0648
rfemur -30.3778 -18.0417 17.5576
rtibia 82.8859
rfoot -7.13813 -20.051
rtoes -22.079
lfemur -34.7785 -8.78839 -19.3131
ltibia 56.5106
lfoot -23.5191 -10.6458
ltoes -20.129
343
root -34.7361 14.5931 0.0764259 -179.606 46.2242 -189.531
lowerback 24.2883 6.89689 -8.71933
upperback 9.96382 8.41548 0.257935
thorax -3.47185 4.53636 2.8535
lowerneck 14.5368 -19.4997 -22.4136
upperneck -25.4526 -25.154 41.7152
head -0.0402864 -14.8868 17.134
rclavicle -5.56597e-015 -6.59965e-014
rhumerus 31.7763 44.0323 -72.5407
rradius 98.5447
rwrist 7.00486
rhand -45.9344 84.2417
rfingers 7.12502
rthumb -18.6826 55.1189
lclavicle -5.56597e-015 -6.59965e-014
lhumerus 24.1205 -10.0306 72.8419
lradius 115.861
lwrist 20.2799
lhand -29.4881 33.8441
lfingers 7.12502
lthumb -2.82305 63.8052
rfemur -31.1393 -18.427 17.1356
rtibia 83.4868
rfoot -8.54106 -18.595
rtoes -21.3541
lfemur -34.7919 -8.90936 -19.1656
ltibia 56.4504
lfoot -22.8036 -10.371
ltoes -17.0099
344
root -34.7368 14.5809 0.102116 -179.635 45.9984 -189.693
lowerback 25.2067 6.59282 -8.29819
upperback 9.90027 8.03643 -0.0490643
thorax -3.85011 4.38594 2.30841
lowerneck 14.1731 -19.5096 -21.899
upperneck -25.2393 -24.999 41.6696
head -0.0630873 -14.8007 17.0298
rclavicle -2.22639e-014 -1.19271e-014
rhumerus 29.3786 44.7498 -74.4742
rradius 97.996
rwrist 7.16532
rhand -46.5692 83.1477
rfingers 7.12502
rthumb -19.293 54.0847
lclavicle -2.22639e-014 -1.19271e-014
lhumerus 22.0201 -10.721 72.9787
lradius 115.817
lwrist 20.3438
lhand -30.0742 34.0043
lfingers 7.12502
lthumb -3.3891 63.9571
rfemur -31.9727 -19.051 16.4428
rtibia 84.0053
rfoot -10.8635 -16.1621
rtoes -16.1388
lfemur -35.0526 -9.59811 -19.1113
ltibia 56.4704
lfoot -22.6571 -9.45062
ltoes -18.1138
345
root -34.7304 14.5792 0.126852 -179.55 45.9238 -189.609
lowerback 25.9708 6.16345 -7.42904
upperback 10.0088 7.65759 -0.624797
thorax -3.88554 4.2521 1.26186
lowerneck 13.6447 -19.6836 -20.9032
upperneck -25.2496 -24.8554 41.8127
head -0.148397 -14.7524 16.9195
rclavicle -4.85035e-014 6.67916e-014
rhumerus 27.4665 45.3299 -76.3201
rradius 97.4222
rwrist 6.63316
rhand -46.2509 85.2463
rfingers 7.12502
rthumb -18.987 56.1531
lclavicle -4.85035e-014 6.67916e-014
lhumerus 20.33 -10.9489 72.5647
lradius 115.863
lwrist 21.6248
lhand -29.3471 33.6752
lfingers 7.12502
lthumb -2.68697 63.638
rfemur -32.7476 -19.4668 15.9415
rtibia 84.302
rfoot -12.3181 -13.8154
rtoes -9.64521
lfemur -35.1954 -9.83011 -18.8937
ltibia 56.5587
lfoot -23.1502 -8.67975
ltoes -22.721
346
root -34.7169 14.5831 0.150778 -179.435 45.9693 -189.402
lowerback 26.8527 5.70928 -6.40887
upperback 10.0643 7.27757 -1.30942
thorax -4.02005 4.12636 -0.00310565
lowerneck 13.2099 -19.8286 -19.7628
upperneck -25.3951 -24.5934 42.09
head -0.315669 -14.675 16.9089
rclavicle 7.71285e-014 -2.14687e-014
rhumerus 25.6347 46.2949 -78.0289
rradius 96.887
rwrist 5.24994
rhand -46.1198 89.8678
rfingers 7.12502
rthumb -18.8609 60.7622
lclavicle 7.71285e-014 -2.14687e-014
lhumerus 18.6337 -10.6268 71.4964
lradius 116.154
lwrist 24.2405
lhand -27.6369 33.436
lfingers 7.12502
lthumb -1.03526 63.4132
rfemur -33.4791 -19.7224 15.5238
rtibia 84.3937
rfoot -15.9809 -14.3688
rtoes -21.3743
lfemur -35.25 -9.57831 -18.6278
ltibia 56.7333
lfoot -24.0639 -7.86718
ltoes -28.9595
347
root -34.7014 14.571 0.17956 -179.376 46.3125 -189.418
lowerback 27.4408 5.54965 -6.04222
upperback 10.145 7.14606 -1.70712
thorax -4.10848 4.096 -0.647522
lowerneck 12.7169 -19.8797 -18.9581
upperneck -25.3937 -24.3534 42.1357
head -0.423688 -14.559 16.8228
rclavicle 2.94201e-014 4.6118e-014
rhumerus 23.6241 46.4552 -79.9602
rradius 95.9105
rwrist 5.44234
rhand -44.575 269.864
rfingers 7.12502
rthumb -17.3746 60.8925
lclavicle 2.94201e-014 4.6118e-014
lhumerus 17.0998 -12.0274 72.6033
lradius 115.1
lwrist 23.6743
lhand -26.7429 32.8519
lfingers 7.12502
lthumb -0.171794 62.8316
rfemur -34.3219 -19.6388 14.9694
rtibia 84.3521
rfoot -16.971 -14.5554
rtoes -23.2451
lfemur -35.4226 -9.54809 -18.4302
ltibia 56.9859
lfoot -24.2364 -7.58522
ltoes -28.3665
